<?xml version="1.0" encoding="UTF-8"?>
<svg version="1.1" xmlns="http://www.w3.org/2000/svg" width="104" height="100">
<path d="M0 0 C2.76810683 0.12063077 5.52935982 0.16402112 8.29980469 0.19384766 C10.06292052 0.22982431 11.82595621 0.27003426 13.58886719 0.31494141 C14.82630676 0.34347702 14.82630676 0.34347702 16.08874512 0.37258911 C21.79015645 0.63547602 21.79015645 0.63547602 23.9732666 2.3588562 C25.7164753 4.6008595 25.46909306 6.23225983 25.24511719 8.99462891 C26.16744141 8.94242188 26.16744141 8.94242188 27.10839844 8.88916016 C27.91664062 8.86208984 28.72488281 8.83501953 29.55761719 8.80712891 C30.75837891 8.75492188 30.75837891 8.75492188 31.98339844 8.70166016 C34.24511719 8.99462891 34.24511719 8.99462891 35.97558594 10.00634766 C40.1392794 16.52733219 38.4280918 27.45485974 38.44824219 34.88916016 C38.45248325 35.94821343 38.45248325 35.94821343 38.45681 37.02866173 C38.47170887 40.75389342 38.48100107 44.47908721 38.48535156 48.2043457 C38.49086993 52.04901292 38.51499404 55.89333199 38.54332352 59.73788929 C38.56191939 62.70182842 38.56715351 65.66568236 38.56868744 68.62967491 C38.57171372 70.04787824 38.57974151 71.46608008 38.59287262 72.88422585 C38.60989175 74.86081575 38.60621407 76.83755129 38.6015625 78.81420898 C38.60703094 80.5000988 38.60703094 80.5000988 38.61260986 82.220047 C38.24511719 84.99462891 38.24511719 84.99462891 37.00520325 86.83872986 C34.82052174 88.27347293 33.32989527 88.48591068 30.72729492 88.66943359 C29.39213333 88.76581116 29.39213333 88.76581116 28.02999878 88.86413574 C23.52849419 89.07506592 19.03656829 89.17701169 14.53027344 89.19775391 C13.55271591 89.20345398 12.57515839 89.20915405 11.56797791 89.21502686 C9.52181051 89.22439947 7.47562854 89.23097966 5.42944336 89.23486328 C2.29157062 89.2446791 -0.84567581 89.27581773 -3.98339844 89.30712891 C-5.97883729 89.31364992 -7.97428077 89.31890391 -9.96972656 89.32275391 C-10.90719223 89.33510071 -11.8446579 89.34744751 -12.81053162 89.36016846 C-13.67896194 89.35716736 -14.54739227 89.35416626 -15.44213867 89.35107422 C-16.5860331 89.35654266 -16.5860331 89.35654266 -17.7530365 89.36212158 C-20.31147157 88.89245209 -21.20289198 88.05078274 -22.75488281 85.99462891 C-22.94238281 83.30712891 -22.94238281 83.30712891 -22.75488281 80.99462891 C-23.67720703 81.04683594 -23.67720703 81.04683594 -24.61816406 81.10009766 C-25.42640625 81.12716797 -26.23464844 81.15423828 -27.06738281 81.18212891 C-28.26814453 81.23433594 -28.26814453 81.23433594 -29.49316406 81.28759766 C-32.32696486 80.92052501 -32.98110186 80.18666944 -34.75488281 77.99462891 C-35.2545166 76.13075256 -35.2545166 76.13075256 -35.42089844 74.0144043 C-35.48510986 73.21527618 -35.54932129 72.41614807 -35.61547852 71.59280396 C-36.04046941 63.67195251 -36.14330531 55.75102752 -36.21484375 47.82006836 C-36.24156015 45.55943747 -36.28260332 43.29893099 -36.33789062 41.03881836 C-36.41713281 37.75146097 -36.45015315 34.46639554 -36.47363281 31.17822266 C-36.50662476 30.17593124 -36.5396167 29.17363983 -36.5736084 28.14097595 C-36.55855639 22.83528487 -36.05728079 19.72218087 -32.50097656 15.66723633 C-31.25839933 14.43682176 -30.01010542 13.21214046 -28.75488281 11.99462891 C-27.97306641 10.95290527 -27.19125 9.91118164 -26.38574219 8.83789062 C-18.8520123 -0.34766262 -11.43214804 -0.49946278 0 0 Z M-15.75488281 9.99462891 C-16.86619913 11.19855492 -17.94355354 12.43391339 -19.00488281 13.68212891 C-21.80509298 16.93268215 -24.67592653 20.00897433 -27.75488281 22.99462891 C-26.14971184 22.90729315 -24.54566619 22.79910666 -22.94238281 22.68212891 C-22.0490625 22.62412109 -21.15574219 22.56611328 -20.23535156 22.50634766 C-17.37006801 21.91524191 -16.39122425 21.40607945 -14.75488281 18.99462891 C-14.39341825 16.7113279 -14.39341825 16.7113279 -14.56738281 14.30712891 C-14.59445313 13.49888672 -14.62152344 12.69064453 -14.64941406 11.85791016 C-14.68421875 11.24302734 -14.71902344 10.62814453 -14.75488281 9.99462891 C-15.08488281 9.99462891 -15.41488281 9.99462891 -15.75488281 9.99462891 Z " fill="#E73123" transform="translate(50.7548828125,5.00537109375)"/>
<path d="M0 0 C0.495 1.98 0.495 1.98 1 4 C1.92232422 3.94779297 1.92232422 3.94779297 2.86328125 3.89453125 C4.07564453 3.85392578 4.07564453 3.85392578 5.3125 3.8125 C6.51326172 3.76029297 6.51326172 3.76029297 7.73828125 3.70703125 C10 4 10 4 11.73046875 5.01171875 C15.89416221 11.53270328 14.18297461 22.46023083 14.203125 29.89453125 C14.20736607 30.95358453 14.20736607 30.95358453 14.21169281 32.03403282 C14.22659169 35.75926452 14.23588388 39.48445831 14.24023438 43.2097168 C14.24575274 47.05438401 14.26987685 50.89870309 14.29820633 54.74326038 C14.3168022 57.70719952 14.32203632 60.67105345 14.32357025 63.63504601 C14.32659654 65.05324933 14.33462432 66.47145117 14.34775543 67.88959694 C14.36477456 69.86618684 14.36109688 71.84292238 14.35644531 73.81958008 C14.36191376 75.50546989 14.36191376 75.50546989 14.36749268 77.22541809 C14 80 14 80 12.76008606 81.84410095 C10.57540455 83.27884402 9.08477809 83.49128177 6.48217773 83.67480469 C5.14701614 83.77118225 5.14701614 83.77118225 3.78488159 83.86950684 C-0.71662299 84.08043702 -5.2085489 84.18238279 -9.71484375 84.203125 C-10.69240128 84.20882507 -11.6699588 84.21452515 -12.67713928 84.22039795 C-14.72330668 84.22977057 -16.76948865 84.23635075 -18.81567383 84.24023438 C-21.95354657 84.2500502 -25.090793 84.28118882 -28.22851562 84.3125 C-30.22395448 84.31902101 -32.21939796 84.32427501 -34.21484375 84.328125 C-35.15230942 84.3404718 -36.08977509 84.3528186 -37.0556488 84.36553955 C-37.92407913 84.36253845 -38.79250946 84.35953735 -39.68725586 84.35644531 C-40.83115028 84.36191376 -40.83115028 84.36191376 -41.99815369 84.36749268 C-44.55658876 83.89782318 -45.44800917 83.05615383 -47 81 C-47.1875 78.3125 -47.1875 78.3125 -47 76 C-49.97 76 -52.94 76 -56 76 C-56 75.67 -56 75.34 -56 75 C-54.99521858 74.96574669 -54.99521858 74.96574669 -53.97013855 74.93080139 C-47.01106729 74.69269248 -40.0522335 74.44838349 -33.09350586 74.20043945 C-30.49492901 74.10867147 -27.89629544 74.01849548 -25.29760742 73.92993164 C-21.56673453 73.8025082 -17.83610171 73.66939921 -14.10546875 73.53515625 C-12.93976852 73.49656998 -11.7740683 73.4579837 -10.57304382 73.41822815 C-9.49214981 73.37826218 -8.4112558 73.3382962 -7.29760742 73.29711914 C-6.34496506 73.26380997 -5.39232269 73.23050079 -4.41081238 73.19618225 C-1.8571331 73.08473337 -1.8571331 73.08473337 1 72 C0.96970703 71.24009766 0.93941406 70.48019531 0.90820312 69.69726562 C0.01177222 46.45901844 -0.11662633 23.2534961 0 0 Z " fill="#D82D20" transform="translate(75,10)"/>
<path d="M0 0 C4.90713015 2.31973425 7.8111048 5.71776931 11 10 C12.7097368 15.1292104 12.64617595 20.06147216 10.9375 25.1875 C8.10969048 29.29238479 4.48984989 32.75507505 0 35 C-5.50158755 35.50239048 -10.38795569 35.76205731 -15.4375 33.375 C-23.62494245 25.7866387 -23.62494245 25.7866387 -24.203125 19.94921875 C-24.30893644 14.84381684 -23.98572863 11.33412221 -21 7 C-14.26692422 0.36043916 -9.51272944 -0.88519501 0 0 Z " fill="#FEF9F9" transform="translate(64,37)"/>
<path d="M0 0 C0 0.33 0 0.66 0 1 C-12.87 1.33 -25.74 1.66 -39 2 C-39.66 3.32 -40.32 4.64 -41 6 C-42.51220703 7.73925781 -42.51220703 7.73925781 -44.2578125 9.453125 C-44.88300781 10.071875 -45.50820313 10.690625 -46.15234375 11.328125 C-46.80332031 11.96234375 -47.45429687 12.5965625 -48.125 13.25 C-48.78371094 13.8996875 -49.44242188 14.549375 -50.12109375 15.21875 C-51.74296643 16.81711727 -53.3693281 18.41061897 -55 20 C-55.66 19.67 -56.32 19.34 -57 19 C-45.00279871 -5.39812219 -23.84766139 -1.65314396 0 0 Z " fill="#871B13" transform="translate(73,6)"/>
<path d="M0 0 C2.6875 2.375 2.6875 2.375 3.5625 5.625 C3.60375 6.5325 3.645 7.44 3.6875 8.375 C4.6775 8.375 5.6675 8.375 6.6875 8.375 C6.0275 9.695 5.3675 11.015 4.6875 12.375 C3.3675 12.375 2.0475 12.375 0.6875 12.375 C0.0275 11.055 -0.6325 9.735 -1.3125 8.375 C-0.6525 8.375 0.0075 8.375 0.6875 8.375 C0.3575 6.725 0.0275 5.075 -0.3125 3.375 C-0.92738281 3.31441406 -1.54226562 3.25382812 -2.17578125 3.19140625 C-3.38814453 3.06572266 -3.38814453 3.06572266 -4.625 2.9375 C-5.42550781 2.85628906 -6.22601563 2.77507813 -7.05078125 2.69140625 C-9.3125 2.375 -9.3125 2.375 -12.3125 1.375 C-12.3125 0.715 -12.3125 0.055 -12.3125 -0.625 C-7.54351187 -2.21466271 -4.56341542 -2.23865662 0 0 Z " fill="#E64437" transform="translate(64.3125,45.625)"/>
<path d="M0 0 C1.9375 0.8125 1.9375 0.8125 4 2 C4.33 2.99 4.66 3.98 5 5 C4.34 5 3.68 5 3 5 C3.33 6.65 3.66 8.3 4 10 C5.45817797 10.16802051 6.9165484 10.33437143 8.375 10.5 C9.18710937 10.5928125 9.99921875 10.685625 10.8359375 10.78125 C12.96912825 11.03352351 12.96912825 11.03352351 15 11 C15 11.99 15 12.98 15 14 C12.13391871 15.43304064 10.18699217 15.30644155 7 15 C3.6875 13.375 3.6875 13.375 1 11 C0.125 7.75 0.125 7.75 0 5 C-0.99 5 -1.98 5 -3 5 C-1.125 1.125 -1.125 1.125 0 0 Z " fill="#E64235" transform="translate(48,50)"/>
<path d="M0 0 C0.33 0 0.66 0 1 0 C1.02705729 1.77074917 1.04642195 3.54161711 1.0625 5.3125 C1.07410156 6.29863281 1.08570313 7.28476562 1.09765625 8.30078125 C1 11 1 11 0 14 C-2.64 14 -5.28 14 -8 14 C-8 13.67 -8 13.34 -8 13 C-7.030625 12.690625 -6.06125 12.38125 -5.0625 12.0625 C-2.15934208 11.30476658 -2.15934208 11.30476658 -1 10 C-0.76712992 8.31816052 -0.58735834 6.6287584 -0.4375 4.9375 C-0.35371094 4.01839844 -0.26992188 3.09929688 -0.18359375 2.15234375 C-0.12300781 1.44207031 -0.06242187 0.73179688 0 0 Z " fill="#64170E" transform="translate(36,14)"/>
</svg>
